# xmcd CD database file
#
# Track frame offsets:
#	150
#	24082
#	54730
#	74751
#	85414
#	106132
#	121263
#	141205
#	166222
#	187209
#	205645
#	231062
#	258811
#
# Disc length: 3798 seconds
#
# Revision: 0
# Processed by: cddbd v1.4PL0 Copyright (c) Steve Scherf et al.
# Submitted via: CDex 1.50beta10
#
DISCID=b00ed40d
DTITLE=Moacir Camargo - Música, Ouvidos e Flores
DYEAR=2000
DGENRE=New Age
TTITLE0=Música, ovidos e Flores
TTITLE1=O Menestrel
TTITLE2=Jardins do Etéreo
TTITLE3=Passeando nos Jardins
TTITLE4=O Vale Florido
TTITLE5=Um amor Florido
TTITLE6=Nossas flores
TTITLE7=As árvores que dão flores
TTITLE8=As marginais floridas
TTITLE9=Como você fica quando ganha flores
TTITLE10=Caramanchões Floridos
TTITLE11=Flores Brasileiras
TTITLE12=Louis Armstrong
EXTD=YEAR: 2000
EXTT0=
EXTT1=
EXTT2=
EXTT3=
EXTT4=
EXTT5=
EXTT6=
EXTT7=
EXTT8=
EXTT9=
EXTT10=
EXTT11=
EXTT12=
PLAYORDER=
